<?xml version="1.0" standalone="no"?>
<svg xmlns:xlink="http://www.w3.org/1999/xlink" id="wave" style="transform:rotate(180deg); transition: 0.3s" viewBox="0 0 1440 100" version="1.1" xmlns="http://www.w3.org/2000/svg"><defs><linearGradient id="sw-gradient-0" x1="0" x2="0" y1="1" y2="0"><stop stop-color="rgba(239, 68, 68, 1)" offset="0%"/><stop stop-color="rgba(137.423, 181.241, 199.954, 1)" offset="100%"/></linearGradient></defs><path style="transform:translate(0, 0px); opacity:1" fill="url(#sw-gradient-0)" d="M0,60L40,50C80,40,160,20,240,23.3C320,27,400,53,480,55C560,57,640,33,720,31.7C800,30,880,50,960,48.3C1040,47,1120,23,1200,21.7C1280,20,1360,40,1440,41.7C1520,43,1600,27,1680,16.7C1760,7,1840,3,1920,3.3C2000,3,2080,7,2160,16.7C2240,27,2320,43,2400,50C2480,57,2560,53,2640,43.3C2720,33,2800,17,2880,8.3C2960,0,3040,0,3120,5C3200,10,3280,20,3360,25C3440,30,3520,30,3600,31.7C3680,33,3760,37,3840,31.7C3920,27,4000,13,4080,10C4160,7,4240,13,4320,13.3C4400,13,4480,7,4560,11.7C4640,17,4720,33,4800,33.3C4880,33,4960,17,5040,20C5120,23,5200,47,5280,61.7C5360,77,5440,83,5520,86.7C5600,90,5680,90,5720,90L5760,90L5760,100L5720,100C5680,100,5600,100,5520,100C5440,100,5360,100,5280,100C5200,100,5120,100,5040,100C4960,100,4880,100,4800,100C4720,100,4640,100,4560,100C4480,100,4400,100,4320,100C4240,100,4160,100,4080,100C4000,100,3920,100,3840,100C3760,100,3680,100,3600,100C3520,100,3440,100,3360,100C3280,100,3200,100,3120,100C3040,100,2960,100,2880,100C2800,100,2720,100,2640,100C2560,100,2480,100,2400,100C2320,100,2240,100,2160,100C2080,100,2000,100,1920,100C1840,100,1760,100,1680,100C1600,100,1520,100,1440,100C1360,100,1280,100,1200,100C1120,100,1040,100,960,100C880,100,800,100,720,100C640,100,560,100,480,100C400,100,320,100,240,100C160,100,80,100,40,100L0,100Z"/></svg>